<?xml version="1.0" encoding="UTF-8"?>
<svg viewBox="0 0 859.47693 900.00745" xmlns="http://www.w3.org/2000/svg">
 <g transform="translate(137.4 -157.78)" fill-rule="evenodd">
  <path d="m97.143 503.79c-50-1.4286-88.571-1.4286-124.29 12.857s-100 247.14-100 247.14-25.714 71.429 4.2857 95.714 110-10 140 35.714 10 97.143 75.714 147.14 147.14-37.143 185.71-41.429l85.714-10s0-70 8.5714-110 24.286-172.86 32.857-198.57 18.571-52.857 18.571-52.857l65.714-38.571-2.8571-22.857-45.714-11.429-30-10-28.571 1.4286-217.14-42.857-68.571-1.4286z" fill="#3f3636"/>
  <path d="m222.86 158.08c-48.571 22.857-57.143 24.286-88.571 18.571s-77.143 32.857-81.429 48.571 15.714 82.857 15.714 82.857 15.714 38.571 54.286 71.429 108.57 91.429 135.71 94.286 62.857 25.714 74.286 27.143 48.571 4.2857 58.571-4.2857 138.57-75.714 150-102.86 2.8571-122.86-54.286-164.29-160-68.571-198.57-68.571-65.714-4.2857-65.714-2.8571z" fill="#6a2121"/>
  <path d="m170 503.79c-44.286-8.5714-80-12.857-71.429 5.7143s44.286 108.57 71.429 117.14 107.14 25.714 138.57 14.286 84.286-32.857 84.286-32.857l-14.286-58.571-20-5.7143-37.143 24.286 12.857 27.143s-42.857 10-74.286 7.1428-72.857-14.286-72.857-14.286l10-28.571-27.143-55.714z" fill="#0c0606"/>
  <path d="m191.43 585.22 7.1429-34.286-25.714-54.286s-34.286-14.286-41.429-21.429-31.429-31.429-11.429-38.571 42.857-17.143 42.857-17.143 35.714 37.143 61.429 42.857 84.286 24.286 84.286 24.286l55.714 15.714 12.857-1.4286-8.5714 28.571s-52.857 50-74.286 50 25.714 1.4286 25.714 1.4286l11.429 12.857s-22.857 20-52.857 18.571-85.714-22.857-87.143-27.143z" fill="#d4a68c"/>
  <path d="m417.14 476.65c20 28.571 72.857 84.286 72.857 84.286l1.4286 74.286s-7.1429 74.286 10 84.286 38.571 10 61.429-15.714 40-34.286 68.571-42.857 57.143-21.429 57.143-51.429-2.8571-24.286-28.571-28.571-44.286-28.571-68.571-38.571l-24.286-10s-28.571-80-32.857-92.857 1.4286-25.714-30-20-75.714 21.429-78.571 32.857-7.1429 24.286-8.5714 24.286z" fill="#7e4626"/>
  <path d="m360 989.51c47.143 10 58.571 57.143 77.143 38.571s11.429-105.71 11.429-105.71 28.571-124.29 40-147.14 15.714-35.714 44.286-15.714 44.286 47.143 44.286 47.143 37.143 30 77.143 2.8571 72.857-45.714 67.143-62.857-57.143-95.714-57.143-95.714l-55.714 12.857-45.714 34.286s-20 30-37.143 25.714-34.286 10-34.286-14.286 2.8571-121.43 2.8571-121.43l-75.714 52.857-24.286 84.286-32.857 198.57-1.4286 65.714z" fill="#9c9fbb"/>
  <path d="m501.17 744.94c-40.184 64.988-45.782 150.11-50.703 224.73-0.27026 11.937-3.3937-9.8662-3.453-14.059-1.4745-12.203 3.5424-36.699 20.696-28.931 13.901 7.3908 14.569 25.77 16.646 39.573-1.1589 12.789 5.0941 31.89 21.266 28.766 10.388-3.7238 15.704-14.54 22.543-22.452 11.228-17.038 13.711-38.452 10.176-58.221-2.3905-49.803-4.781-99.605-7.1716-149.41-9.0476-4.2857-20.952-15.714-30-20z" fill="#3f3636"/>
 </g>
 <g transform="translate(137.4 -157.78)">
  <path d="m166.4 193.3c-42.046-14.567-106.17 4.5948-111.7 54.503-0.01503 45.084 50.209 60.943 87.249 63.853 38.74 2.0478 75.013 22.603 93.003 57.624 25.299 44.391 38.922 103.64 92.171 123.49 53.56 21.997 101.6-19.069 142.04-44.564 53.178-5.1675 92.458-54.813 70.097-112.19-15.516-81.773-92.824-131.94-167.71-153.41-42.855-16.362-88.487-11.569-133.11-9.3946-23.023 0.9453-51.426-7.8195-13.728-12.988 60.327-12.759 123.77-2.2654 181.66 16.249 62.895 24.963 128.48 67.331 144.59 137.62 22.433 44.883-3.2726 107.45-54.028 117.31-54.667 12.31-90.025 64.744-140.66 80.653-56.173 2.9023-100.78-44.89-116.82-95.035-16.71-53.135-63.431-90.294-119.27-93.109-46.459-0.90657-97.668-44.441-71.146-92.559 16.743-39.056 64.179-67.298 105.94-51.354l6.6572 5.8276 4.7654 7.4744z"/>
  <path d="m66.865 293.49c23.363 79.639 101.85 121.28 168.01 160.83 18.582 8.3304 75.189 15.603 62.389 37.805-71.949 3.3311-120.56-59.052-170.1-101.31-23.625-21.977-79.234-60.061-60.307-97.321z"/>
  <path d="m153.25 434.43c-51.802-12.88-14.297 55.16 11.56 45.43-46.544 43.061-81.001-46.419-22.523-58.988 7.9575-2.7271 12.928 7.2386 10.962 13.558z"/>
  <path d="m131.91 471.94c-15.84-45.422 72.871-26.758 22.319 3.0767 5.9351-18.114-21.615-30.157-9.8779-20.35-1.5293 6.3378-4.8318 16.383-12.441 17.273z"/>
  <path d="m179.81 466.77c-15.025 33.012 31.81 74.344 24.071 91.282-39.093-0.31271-48.362-69.173-24.071-91.282z"/>
  <path d="m223.21 536.2c-3.4807 60.575 89.361 46.279 102.77 22.949-15.607 39.507-68.414 46.188-100.76 23.689-18.763-10.208-23.091-35.71-2.0083-46.638z"/>
  <path d="m332.57 549.46c24.734 18.674 38.648-60.552 39.973-17.683-0.9947 12.703-56.386 54.634-39.973 17.683z"/>
  <path d="m228.57 503.72c19.992 4.5055 86.707-9.9168 35.702 12.787-10.913 3.0908-61.251 13.075-35.702-12.787z"/>
  <path d="m251.09 508.44c4.2399 47.348 76.33-6.1035 72.855 8.2717-8.8451 31.189-101.87 40.712-72.855-8.2717z"/>
  <path d="m267.3 352.77c20.476-2.2676 63.469 25.05 19.97 23.687-12.539-0.54831-41.937-7.8402-19.97-23.687z"/>
  <path d="m192.11 236.88c-0.43543 42.094 67.923 24.259 97.443 35.214 29.474 12.367 85.234-20.024 32.817-36.844-25.577-7.3273-89.643-2.0212-89.087-13.832 38.608 8.7804 116.84-8.9412 121.13 44.328-30.758 40.907-85.098 7.2789-125.97 6.703-28.364 2.2851-90.526-36.815-34.979-46.504l1.2016 3.6697-2.5602 7.2644z"/>
  <path d="m363.82 265.63c-7.4962 34.978 21.048 89.541 17.79 106.79-39.187-12.306-31.867-69.862-24.455-101.06l6.6651-5.7219z"/>
  <path d="m160.96 249.88c0.87269 22.461-28.048 51.643-14.36 13.642 3.8352-5.4355 8.8439-9.9654 14.36-13.642z"/>
  <path d="m158.58 507.12c-17.777 17.746-82.221-17.311-48.411 19.465 23.747 36.463 41.856 88.606 89.004 99.121 51.034 5.8708 104.77 18.757 153.86-3.9838 20.153-10.346 38.844-19.491 12.48 3.1655-52.221 37.023-119.38 23.103-178.18 15.367-46.967-12.495-66.573-64.095-90.982-101.34-35.733-43.496 54.119-56.8 63.653-33.99l-1.3252 2.0387-0.10326 0.15885z"/>
  <path d="m199.5 557.08c12.219 20.913-26.844 59.97-11.51 16.682-0.06721-7.6558 7.1346-11.619 11.51-16.682z"/>
  <path d="m323.32 559c5.7288 13.381 27.233 52.643-4.7888 34.463-10.131-10.361-9.0078-27.793 4.7888-34.463z"/>
  <path d="m70.979 514.97c-10.774 7.2105-27.569 17.368-8.5618-0.59935-0.40601 48.74 56.872 64.946 82.591 96.857-27.28 26.088-56.731-34.164-82.824-47.811-26.644-17.238-5.8212-62.653 16.557-59.426l-2.4789 4.2941-5.2828 6.6851z"/>
  <path d="m27.927 523.84c-14.212 8.7315 14.322-16.364-0.30224 8.3802 19.565 69.516 87.912 114.06 157.13 122.17 49.205 9.7764 99.601 7.0264 149.44 8.7597-39.181 33.226-94.475 5.6533-140.56 8.9707-65.056-6.4285-131.82-35.772-165.72-94.127-22.24-14.925-8.395-70.848 4.5601-60.78l-4.554 6.6232z"/>
  <path d="m-2.2847 523.1c-21.323 5.434-37.271-2.5548-20.98 23.885 8.6938 44.387 62.068 64.104 80.259 92.352-41.176 5.6001-86.547-45.048-94.03-85.837-22.1-32.695 57.316-62.356 34.751-30.4z"/>
  <path d="m389.76 602.15c56.31 17.088 27.985 75 12.781 110.34-8.4444 59.793-19.483 118.8-27.527 178.6-5.1696 34.956-10.819 72.018 0.88442 106.21-18.419 49.781-24.017-37.223-17.388-57.352 5.3587-58.964 14.916-117.32 25.369-175.38-6.6883-44.329 32.47-81.37 30.271-120.09-9.3734-13.426-48.607-21.946-24.39-42.338z"/>
  <path d="m373.33 675.83c-34.282 42.364-89.428 57.784-132.98 88.223-47.493 28.686-89.476 65.219-132.27 100.26-7.4734 13.137-31.942 64.877-57.107 83.934 14.108-19.44 1.4008 0.36135 15.627-24.265 22.463-44.202 54.465-82.864 95.243-111.35 62.035-52.054 134.56-89.14 203.03-131.56 0.66224 5.236 13.985-10.14 8.4661-5.2419z"/>
  <path d="m331.66 770.41c-49.788 66.714-108.8 128.32-141.44 206.19-34.115 44.461 28.577-69.535 14.252-40.801 34.451-58.215 80.145-108.89 122.42-161.18l4.7648-4.2075z"/>
  <path d="m184.87 710.1c-26.85 42.069-84.12 45.801-116.36 82.901-12.816 15.845-64.504 22.878-25.137 1.935 47.045-18.407 81.529-59.389 129.86-75.195-10.65 13.944 8.5599-9.8178 11.636-9.6408z"/>
  <path d="m-41.201 517.69c-30.235 49.478-22.079 111.82-50.023 162.68-9.8846 33.26-11.855 71.92-38.048 97.592 11.656-25.501 26.45-99.427 46.691-144.69 6.2894-40.121 7.1238-87.643 41.38-115.57z"/>
  <path d="m379.81 544.71c32.623 3.0287 11.813 82.536 1.1503 28.877-7.6964-8.6819-17.437-22.156-1.1503-28.877z"/>
  <path d="m374.86 647.73c-33.773-7.84-3.5782 14.555 16.308 12.531-29.441 14.309 11.869-39.688 4.031-2.8908-17.558 52.347-72.844-19.289-21.764-23.715 18.072-5.0101 6.026 11.008 1.4243 14.075z"/>
  <path d="m414.14 651.21c6.0634-25.604 61.809-66.164 65.17-51.159-36.62 26.102-42.138 20.456-65.17 51.159z"/>
  <path d="m406.6 602.3c24.962-20.782-1.353 13.933 9.2091-10.751 3.6795-22.971 23.012-42.432 13.762-6.131-1.2887 9.5632-52.511 57.076-22.971 16.882z"/>
  <path d="m395.48 543.62c21.977-23.498 55.343 22.983 14.15 11.242-12.716-0.80383-33.999 9.7196-14.15-11.242z"/>
  <path d="m445.37 553.46c20.328-11.391 80.34 27.575 33.051 20.841-10.959-5.249-59.991 1.2499-33.051-20.841z"/>
  <path d="m425.68 473c33.311-16.55 92.727-79.204 120.72-32.837-2.6543 27.412 37.383 86.583 13.327 92.156-26.624-27.903-5.1236-127.22-70.005-88.844-20.885 9.7533-40.446 28.476-64.043 29.525z"/>
  <path d="m434.59 489.37c7.2612 31.565 78.345 60.461 60.953 82.527-27.795-13.671-73.305-51.961-61.354-82.231l0.40148-0.29585z"/>
  <path d="m405.78 489.23c-41.549 21.553 14.168-31.551 0 0z"/>
  <path d="m410.88 454.39c62.465-27.765-23.524 38.743 0 0z"/>
  <path d="m445.67 433.6c22.172-18.862 37.426 13.067 5.6138 10.41-12.271 7.0845-16.487-4.0482-5.6138-10.41z"/>
  <path d="m487.52 418.38c41.693-18.588 20.644 26.153-6.1456 9.1219l1.4807-4.5148 4.6649-4.6071z"/>
  <path d="m495 570.17c18.531 48.419-14.189 111.6 17.113 151.42 45.864-3.1022 68.492-60.055 115.87-65.978 41.935 0.87679 74.192-36.346 46.011-73.643-20.202-20.854 28.84-15.834 22.031 9.3162 11.485 47.042-40.046 74.983-79.538 80.294-49.463 3.0544-72.301 77.008-122.47 61.12-21.44-42.334 5.3754-98.79-12.038-145.21 1.342-7.6588 8.1304-12.088 13.027-17.32z"/>
  <path d="m591.26 530.91c9.7799 33.973 78.717 35.405 77.126 60.054-25.966 8.6951-105.75-32.105-77.126-60.054z"/>
  <path d="m575.28 694.18c14.561 17.739 9.1779 75.449-8.9939 29.992-4.4003-10.792-2.8728-24.648 8.9939-29.992z"/>
  <path d="m677.01 649.6c21.301 35.125 81.259 82.637 30.415 120.92-4.6566 5.5818-21.393 14.725-6.8054 0.83459-22.901 47.185-112.92 76.38-141.08 22.892-14.565-33.808-82.866-27.178-82.008-55.986 39.909-3.092 80.575 23.822 103.82 55.737 25.687 33.27 84.788 4.6655 106.22-10.687 56.519-28.42 9.8162-77.117-16.871-109.56-4.1646-8.3568-1.0773-18.684 6.3054-24.146z"/>
  <path d="m481.01 768.53c-34.392 31.498 13.606-31.336 4.6503-7.209l-4.6503 7.209z"/>
  <path d="m500.44 753.24c-31.667 60.506-37.573 129.98-42.823 196.85 1.5302 17.974-26.335 70.911-16.74 26.997 8.1106-60.737 12.967-122.71 31.796-181.23 7.954-14.868 13.618-32.265 27.768-42.621z"/>
  <path d="m535.08 769.15c2.1234 33.579-1.1108 67.492 5.4257 100.75 2.7764 23.718 5.8357 47.443 7.6777 71.244-2.0178 14.124-19.194 13.151-13.471-1.701-3.7754-30.175-6.9986-60.437-10.811-90.588-0.79219-21.407-0.09989-42.94-1.408-64.268 1.7607-6.7975 8.5664-10.185 12.586-15.433z"/>
 </g>
</svg>
